<svg xmlns="http://www.w3.org/2000/svg" width="500" height="500" style="width:100%;height:100%;transform:translate3d(0,0,0);content-visibility:visible" viewBox="0 0 500 500"><defs><clipPath id="a"><path d="M0 0h500v500H0z"/></clipPath><clipPath id="d"><path d="M0 0h500v500H0z"/></clipPath><clipPath id="c"><path d="M0 0h500v500H0z"/></clipPath><clipPath id="b"><path d="M0 0h500v500H0z"/></clipPath></defs><g clip-path="url(#a)"><g fill="none" stroke-linecap="round" stroke-linejoin="round" stroke-width="3.5" clip-path="url(#b)" opacity="0" style="display:block"><path stroke="#121331" d="M50 7.551V-6.01h-9.018a41.538 41.538 0 0 0-2.09-7.84l7.81-4.51-6.781-11.744-7.803 4.505a42.054 42.054 0 0 0-2.742-3.027 42.083 42.083 0 0 0-2.995-2.714l4.509-7.811-11.745-6.78-4.505 7.804a41.476 41.476 0 0 0-7.839-2.098v-9.025H-6.76v9.018a41.548 41.548 0 0 0-7.841 2.09l-4.509-7.81-11.744 6.781 4.505 7.803a42.054 42.054 0 0 0-3.027 2.742 42.083 42.083 0 0 0-2.714 2.995l-7.811-4.509-6.78 11.744 7.804 4.506a41.456 41.456 0 0 0-2.098 7.839H-50V7.51h9.018a41.538 41.538 0 0 0 2.09 7.84l-7.81 4.51 6.781 11.744 7.803-4.505a42.054 42.054 0 0 0 2.742 3.027 42.083 42.083 0 0 0 2.995 2.714l-4.509 7.81 11.744 6.781 4.506-7.804a41.456 41.456 0 0 0 7.839 2.098v9.025H6.76v-9.018a41.518 41.518 0 0 0 7.84-2.09l4.51 7.81 11.744-6.781-4.505-7.803a42.268 42.268 0 0 0 3.027-2.742 42.083 42.083 0 0 0 2.714-2.995l7.81 4.509 6.781-11.744-7.804-4.506a41.456 41.456 0 0 0 2.098-7.839H50z" opacity="1" style="display:block" transform="matrix(3.33 0 0 3.33 248.89 246.67)"/><path stroke="#08A88A" d="M15.208 15.958c-8.399 8.399-22.017 8.399-30.416 0-8.399-8.399-8.399-22.017 0-30.416 8.399-8.399 22.017-8.399 30.416 0 8.399 8.399 8.399 22.017 0 30.416z" opacity="1" style="display:block" transform="matrix(3.33 0 0 3.33 250 246.67)"/></g><g fill="none" stroke-linecap="round" stroke-linejoin="round" stroke-width="3.5" clip-path="url(#c)" opacity="0" style="display:block"><path stroke="#121331" d="M50 7.551V-6.01h-9.018a41.538 41.538 0 0 0-2.09-7.84l7.81-4.51-6.781-11.744-7.803 4.505a42.054 42.054 0 0 0-2.742-3.027 42.083 42.083 0 0 0-2.995-2.714l4.509-7.811-11.745-6.78-4.505 7.804a41.476 41.476 0 0 0-7.839-2.098v-9.025H-6.76v9.018a41.548 41.548 0 0 0-7.841 2.09l-4.509-7.81-11.744 6.781 4.505 7.803a42.054 42.054 0 0 0-3.027 2.742 42.083 42.083 0 0 0-2.714 2.995l-7.811-4.509-6.78 11.744 7.804 4.506a41.456 41.456 0 0 0-2.098 7.839H-50V7.51h9.018a41.538 41.538 0 0 0 2.09 7.84l-7.81 4.51 6.781 11.744 7.803-4.505a42.054 42.054 0 0 0 2.742 3.027 42.083 42.083 0 0 0 2.995 2.714l-4.509 7.81 11.744 6.781 4.506-7.804a41.456 41.456 0 0 0 7.839 2.098v9.025H6.76v-9.018a41.518 41.518 0 0 0 7.84-2.09l4.51 7.81 11.744-6.781-4.505-7.803a42.268 42.268 0 0 0 3.027-2.742 42.083 42.083 0 0 0 2.714-2.995l7.81 4.509 6.781-11.744-7.804-4.506a41.456 41.456 0 0 0 2.098-7.839H50z" opacity="1" style="display:block" transform="matrix(3.33 0 0 3.33 248.89 246.67)"/><path stroke="#08A88A" d="M15.208 15.958c-8.399 8.399-22.017 8.399-30.416 0-8.399-8.399-8.399-22.017 0-30.416 8.399-8.399 22.017-8.399 30.416 0 8.399 8.399 8.399 22.017 0 30.416z" opacity="1" style="display:block" transform="matrix(3.33 0 0 3.33 250 246.67)"/></g><g fill="none" stroke-linecap="round" stroke-linejoin="round" stroke-width="3.5" clip-path="url(#d)" style="display:block"><path stroke="#121331" d="M50 7.551V-6.01h-9.018a41.538 41.538 0 0 0-2.09-7.84l7.81-4.51-6.781-11.744-7.803 4.505a42.054 42.054 0 0 0-2.742-3.027 42.083 42.083 0 0 0-2.995-2.714l4.509-7.811-11.745-6.78-4.505 7.804a41.476 41.476 0 0 0-7.839-2.098v-9.025H-6.76v9.018a41.548 41.548 0 0 0-7.841 2.09l-4.509-7.81-11.744 6.781 4.505 7.803a42.054 42.054 0 0 0-3.027 2.742 42.083 42.083 0 0 0-2.714 2.995l-7.811-4.509-6.78 11.744 7.804 4.506a41.456 41.456 0 0 0-2.098 7.839H-50V7.51h9.018a41.538 41.538 0 0 0 2.09 7.84l-7.81 4.51 6.781 11.744 7.803-4.505a42.054 42.054 0 0 0 2.742 3.027 42.083 42.083 0 0 0 2.995 2.714l-4.509 7.81 11.744 6.781 4.506-7.804a41.456 41.456 0 0 0 7.839 2.098v9.025H6.76v-9.018a41.518 41.518 0 0 0 7.84-2.09l4.51 7.81 11.744-6.781-4.505-7.803a42.268 42.268 0 0 0 3.027-2.742 42.083 42.083 0 0 0 2.714-2.995l7.81 4.509 6.781-11.744-7.804-4.506a41.456 41.456 0 0 0 2.098-7.839H50z" style="display:block" transform="matrix(3.33 0 0 3.33 248.89 246.67)"/><path stroke="#08A88A" d="M15.208 15.958c-8.399 8.399-22.017 8.399-30.416 0-8.399-8.399-8.399-22.017 0-30.416 8.399-8.399 22.017-8.399 30.416 0 8.399 8.399 8.399 22.017 0 30.416z" style="display:block" transform="matrix(3.33 0 0 3.33 250 246.67)"/></g><g class="com" style="display:none"><path/><path/><path/><path/><path/><path/><path/><path/><path/><path/><path/><path/></g></g></svg>